<?xml version="1.0" encoding="UTF-8"?>
<svg id="Layer_1" xmlns="http://www.w3.org/2000/svg" version="1.1" viewBox="0 0 1024 1024">
  <!-- Generator: Adobe Illustrator 30.1.0, SVG Export Plug-In . SVG Version: 2.1.1 Build 136)  -->
  <path d="M961.5,511.8c0,247.9-201,448.9-448.9,448.9S63.7,759.7,63.7,511.8c0-247.9,201-448.9,448.9-448.9s448.9,201,448.9,448.9ZM175,790.7c49.6,59.8,114.4,105.6,187,131.9,105.5,38.2,221.7,35,324.5-9.3,107.4-46.4,192.2-134.1,234.3-243.4s38.4-236.2-11.8-344.2c-24.2-52-57.5-96.3-99.4-135.2C652,44.4,407.9,36,240.2,169.5c-2.1-.2-1.8-2.3-3.2-2.2-.6,1.9,1.1,2.3,1.1,3.7-127.2,102.5-185,263-154.8,424,13.5,71.9,44.8,138.9,91.9,195.6Z"/>
  <path d="M944,511.9c0,238.3-193.2,431.5-431.5,431.5S81,750.2,81,511.9,274.2,80.4,512.5,80.4s431.5,193.2,431.5,431.5ZM940,511.9c0-236.1-191.4-427.5-427.5-427.5S85,275.8,85,511.9s191.4,427.5,427.5,427.5,427.5-191.4,427.5-427.5Z"/>
  <path d="M426.3,919.8l10.6-44-18,42c-3.2.2-6-.7-8.9-2.1l2.7-45-11.1,42.8c-2.7.3-5.3-.2-8-1.7l15-62.1c5.1.4,9.1,1.7,13.4,3.4l-2.8,45,17.9-42,13.9,3.5-15.5,62.4c-3.7-.1-6.3-1-9.2-2.3Z"/>
  <path d="M448.3,125.8l4.5,42.9c-1.7,1.9-6.2,2.3-8.4.6l-7.1-62.3c4.3-1.5,8.3-1.3,13.1-2l13.7,43.2,1.9-44.9c4.7-.5,8.6-1.4,13.5-1.4l8.3,62.9c-3.2,1-6.2,1.8-9.3,1.2l-5.8-43.3-2.5,44.4c-2.5,1.2-6.1,1.8-8.7.7l-13.1-41.9Z"/>
  <path d="M221,321.5c-.5,3-2.6,5.4-5.2,6.9l-51.1-37.6c.9-4,3.6-7,6.3-10.3,12.7,3.3,23.5,8.7,36.9,12.9l-30.1-22.1c1.3-2.8,2.5-5,5.2-6.9l52.1,37.7c-1.4,3.1-3.3,5.2-5.5,7.9-12-3.8-23.4-8.6-35.3-13.2-3.1-1.2-6-2.9-9.6-2.6l36.1,27.2Z"/>
  <path d="M675.2,202.7c-3.2,1-7.7-1.3-9.5-3.7l6.8-45.2-19.6,39.2c-3,0-5.5-1.4-7.8-3.3l27.4-57.2c4.2,1.7,7.5,3.3,11,5.3l-5.5,37,15.6-32.4c3.1,1,5.4,1.8,7.7,3.6l-26.1,56.6Z"/>
  <path d="M558.8,926.1c-3,1.4-5.8,1.6-8.7.8l-8.3-62.8c4.4-1.3,8.3-1.7,12.6-1.8l15.3,35.1-3.7-36.2c3-1,5.6-1.6,8.8-1l7.4,62c-1.8,2.3-7.7,3.1-9.8,1.5l-19-42,5.3,44.5Z"/>
  <path d="M923,485l-61.9,8.8c-1.4-3-1.9-6.2-1.7-9.6l42.9-19.9-43.1,5c-1.2-3-1.6-5.4-1.1-8.6l62.2-7.2c1.2,3.7,1.5,7.3,1.4,11l-35.9,16.4,36.1-4.2c1.6,1.8,1.6,4.8.9,8.3Z"/>
  <path d="M322.3,222c-4.8,3.5-9.4,6.1-14.7,9.4l-34.4-53.6c4.4-4,9.4-6.5,14.1-9.6,7.2-4.6,15.6-2.6,20.2,4.5l18.9,29c4.5,6.9,2.9,15.3-4.1,20.4ZM318.5,212.3c.7-2-.2-4.5-1.1-5.9l-19.5-29.5c-2.3-3.5-9.9-.6-11,3.1l23.8,38c3.4-.9,6.7-2.4,7.9-5.7Z"/>
  <path d="M381.6,190.4c-5.7,3.2-11.5,5.3-17.9,7.4l-23.4-59.6c5.9-2.6,11-4.8,16.2-6.6,8.4-2.8,15.5,1.6,18.7,9.5l12,29.1c3.1,7.5,2.3,15.9-5.6,20.3ZM378.3,181c1.4-2.2.2-5-.5-6.9l-11.6-28.5c-.8-2-2.2-4.6-4.3-5.2-3.3-.8-6.6.4-9.2,2.6l17.1,42.3c3-.4,6.7-1.3,8.6-4.3Z"/>
  <path d="M768.5,275.1c-2.8-.2-6.3-3.7-6.6-6.1,3.5-5.4,9-9.7,13.1-14.9s.2-10.2-3.8-10.8l-17.9,17.1c-3.1-1.6-5.3-3.7-7.4-6.3l45.6-45c4.8,4.9,16.6,13.9,16.3,20.9-.3,9.4-12.7,20.8-22.6,19.4,2.5,9.9-9.8,18.1-16.7,25.7ZM786.6,241.1c2.8-.8,11.6-7.5,10.3-13.3s-3.3-5.7-5.3-4.3c-4.6,3.3-9.1,8.2-12.9,11.9,0,3.1,4.6,6.6,7.9,5.7Z"/>
  <path d="M162.5,419.3c15.6,3.7,8.9,22.8,5.1,34.2l-61-15.2c.9-6.2,2.4-11.2,3.8-16.7s8.8-12.4,16.5-10.6l35.5,8.3ZM155.3,427.7l-14.3-3.9c-3-.8-6-.4-9.3-1.4s-7.3-2.4-10.1-.7-3.5,6.5-3,9.4l43,10.7c1.6-3.4,3.1-7.5,1.3-10.8s-4.9-2.6-7.5-3.3Z"/>
  <path d="M637.7,171.8c-2.9,9.2-11,12.9-19.6,10.3-8.6-2.6-13.6-10.5-10.6-19.5l11.7-34.8c3-8.9,11.7-11.9,20-8.5s12.1,9.6,9.5,17.6l-11.1,34.9ZM628.1,168.8l11.3-35.9c1-3-3-5.2-5-5.4-2.8-.2-5.3,1.4-6.3,4.5l-10.9,33c-1.3,3.8-.5,7,2.8,8.3s6.7-.3,8.1-4.5Z"/>
  <path d="M516.5,166c-9.8.2-16.3-6.6-16.1-16l.9-36.3c.2-8.9,6.9-14.2,15.6-13.8s14.6,5.1,14.9,13.4c.5,12.5,0,25-.3,37.7-.3,8.6-6.1,14.8-15.1,15ZM521.6,150.5l.4-35.4c0-3.7-2.4-6-5.5-6s-5.5,2.2-5.5,5.9l-.8,36.1c0,3.9,2.9,6.2,6.3,5.9s5.1-2.5,5.1-6.5Z"/>
  <path d="M869,442.8c-8.8,2.3-16.1-2.5-18.6-10.4s1.3-17.3,10.5-19.9,23.1-6.2,34.9-8.7c9-1.9,16,3.5,17.8,11.7s-1.7,15.8-10.4,18.1l-34.2,9.1ZM865.3,433.4l35.1-9.2c3.5-.9,5.3-3.4,4.6-6.6s-3.5-5.2-7-4.3l-34.8,9.1c-3.4.9-5,4-4.4,6.7s2.7,5.3,6.5,4.3Z"/>
  <path d="M839.7,261.9c2.8,2,4.3,4.2,5.6,7.3-14.2,10.9-27.1,22.4-41.9,32.2-7.6,5.1-17.3,1.1-21.4-6.6s-.8-14.2,5.1-18.9l39.6-30.8c2.7,2.9,4.4,5,6.3,7.7l-40.1,31.1c-2.6,2-3.1,5.5-1.7,7.5s5.9,3.4,8.7,1.2l39.7-30.9Z"/>
  <path d="M483.9,916.3c-4.4-.5-8.5-1-12.9-.9-2,2.9-1.2,7.3-3.6,10.3s-5.8.4-8.6-.1l16-63.4,14.8,1.4,5.1,64.7c-4,.5-6.6.3-9.8-.3-.9-3.8-.8-7-1.1-11.6ZM483.4,907.2l-2.7-32.7-7.9,31.9c3.5,1,6.6,1.5,10.6.8Z"/>
  <path d="M194.4,344.5c-2.2,3.7-4.2,7.4-5.7,11.4,2.1,3.5,6.7,4.5,8,8,0,2.4-2.3,5.1-3.6,7.2l-51.3-40.3,6.7-12.9,40.8,14.4c6.9,2.4,13.6,4,20.4,7.1-.9,2.8-2.5,5.5-4.3,8.5-3.8-.6-6.9-2.4-11.1-3.5ZM186.1,341.4l-30.4-10.7,25.5,19.8c2.4-3.2,3.7-5.2,4.9-9.1Z"/>
  <path d="M161.9,492.9c2.3.9.1,6.3-.8,8.6l-61.6-19c.4-5.3,1.2-9.2,2.2-14.3,21.2-.7,41.9-.9,63.3-3,.3,2.7,1.2,8.1-1.1,9.6s-7.1,0-10.4,1c-1.7,3.9-2.1,8.5-2.4,13l10.8,4.1ZM142.7,486.8c1.4-3.8,1.5-6.5,1.6-9.8-10.8,0-20.4-.9-31.5.4l29.9,9.4Z"/>
  <path d="M248.9,266c-1.9-2.6-5.4-4.4-6.7-7.4-.2-2.4,3.6-5.3,5.5-6.9,3.8,2.9,6.7,5.8,9.3,9.3,4.4,6,3.4,13.2-1.2,18.9-5.2,6.5-14.6,8.4-21.2,2.4-9.8-8.9-19.4-17.9-28.5-27.4-6.2-6.5-5-15.8,1.1-21.5s10.9-6.1,16.9-2.8,6.9,4.9,9.9,8.3c-2,2.5-3.7,4.5-6.2,6.5-4.5-2.7-8.4-9.8-14-5.7s-3,6-.6,8.2l26.4,25.2c2.4,2.3,5.6,3.6,8.3,1.4s3.2-5.5,1-8.5Z"/>
  <path d="M118.4,390c.6-3.4,1.2-6.6,3.3-9.5l50.5,11.1-45.2-26.2c.8-3.3,1.5-5.9,3.3-8.6l22.6,13.1c11.3,6.5,22.3,12.7,33.6,20-.7,4.7-2.8,8.4-4.8,13.1l-63.3-13.1Z"/>
  <path d="M822.2,331.4c4.5-1.1,7.4-4.1,11.1-6.2,2.1,2.3,3.5,4.6,4.9,8.2-4.9,2.7-9.5,7-15.6,7.4-9.7.6-17.6-9.2-15.8-18.5s4.1-8.2,7.9-10.6l30.2-18.7c7.3-4.5,15.7-2,20.3,4.8s3.7,13.5-1.7,18.9c-2.7,2.7-6,4.5-9.4,6.3-2-2.6-3.3-5-4.3-7.9,3.4-3.5,11.3-5.8,8.1-11.8s-4.2-3.8-7.1-2.1c-10.8,6.5-21.4,12.8-31.8,19.9s-3,3.8-2.5,6.1,2.2,5,5.7,4.2Z"/>
  <path d="M586.5,158.2c1-2.9.3-6.6,2-8.7,2.4-1.1,6,.5,8.7,1.5-.5,5.5-1.3,10.6-4,15.2s-9.3,6.5-14.9,5.7c-9.1-1.3-14.5-8.9-12.7-18l7.1-35.9c1.8-9.3,11-13.1,19.5-10.5,11.9,3.8,11.7,14.6,8.5,25.1-2.8-.6-5.6-.9-8.8-1.9.1-4.4,4.4-13-2.6-14.6s-6.7,1.5-7.5,5.6l-6.7,35.2c-.6,3,2.5,5.6,4.3,5.9,3.2.6,5.7-.9,7-4.7Z"/>
  <path d="M609.4,888.8c.4,6.2,2.7,12.5,4.3,18.5,6-.4,10.9-3.4,16.6-3.4s3.5,6,2.3,7.9c-8.4,2.7-17.6,5-26.4,6.6l-16.2-62.2,27.6-7.3c1.5,3.1,2.4,5.8,2.2,8.9l-17.4,4.9c1,5.7,2.5,11.1,4.3,16.8l13-2.4c1.7.8,3,6,1.8,7.6-2.9,2.6-7.5,2.3-12.3,4.1Z"/>
  <path d="M713.5,217.1c-4.6,3.9-10.3,4.3-15.7,1.9s-8.6-6-8.9-12c-.2-5.1,2.1-9.8,5.2-13.9,2.6,1.4,4.7,3,7.2,4.8-1.3,3.3-5.5,8.3-1.5,11.6s4.4,2.2,6.5.8c13.6-9.3-11-31.5,8.2-47.6,4.7-4,10.9-3.7,16-.7,4,2.4,7,5.9,7.8,10.3s-.8,9.4-4.1,12.9c-2.7-1.8-5.5-2.4-7.1-4.7s1-2.9,1.3-3.9c1.1-3.2.4-6-2.5-7.2s-5,0-6.8,2.8c-3.6,5.2-2.6,11.8-.4,17.9,3.4,9.4,2.9,19.7-5.4,26.7Z"/>
  <path d="M265,229.9l12.3,14.8,13.7-11.3c2.7,1.7,4.4,3.9,5.9,6.4l-21.5,18.2-41.3-49.5,21.1-17.9c2.2,1.1,4.9,4,5.2,6.5l-12.5,12,10.6,13.2c4.7-1.3,7.2-5,11-8.2,2.5,1.3,4.7,3.9,5.9,6.7l-10.2,9.2Z"/>
  <path d="M421.9,147.1l-13.4,4.9,4.6,18,17.2-4.3c1.4,2.2,3.2,6.1,2.1,8.5l-26.4,7.1-16.6-62.1,26.4-7.7c1.8,2.9,2.3,5.4,2.4,8.6l-16.6,4.8c.7,6,3,11.6,4.5,17.6l13.6-3.4c1.3,2.2,1.9,5,2.3,7.9Z"/>
  <path d="M731.8,241.1c-3.2.1-5.8-2.8-8.1-5.4l33.6-43.5c-1.7-3.2-5.7-3.7-7-6.6s2.7-5.5,4.7-6.9l24.3,19.3c-1.6,2.4-3,4.5-5.2,6.5l-8.5-6.1-33.7,42.7Z"/>
  <path d="M831.9,371.9c-2.3-2-3.5-4.7-4.4-8.4l49.6-24c-1.4-3.7-3.3-6.1-4.2-9.7,2.5-1.7,5.1-2.8,7.9-3.6l13.3,28.4-7.7,3.2c-2.4-2.8-2.6-6.7-5.5-9.3l-49,23.4Z"/>
  <rect x="515.9" y="864.1" width="10.2" height="65" transform="translate(-11.7 6.9) rotate(-.8)"/>
  <rect x="838.8" y="381.4" width="64.7" height="10.2" transform="translate(-80.3 331.7) rotate(-20.6)"/>
  <circle cx="888.2" cy="579.7" r="10.9"/>
  <circle cx="136.1" cy="579.3" r="10.8"/>
  <g>
    <path d="M631.1,830.4c-249.4,93.9-413.6-131.6-411.8-151.7l.3-3-3-1.7c-8.3-4.7-37.9-99.7-30-87.8-1.7-2.6-2.6-3.9-3.1-7.2-12.1-74.9-3.4-142.8,30.2-210.9,16.9-34.2,39.5-64,66.7-90.7,52.2-51.1,119.8-83.8,192.5-92.1.7,1.2,1.2,2.3,1.8,2.6,1.2.5,3-.6,2.7-3.1,96.5-10.6,192.6,22,263.3,88.7,24.8,23.4,46.3,50.2,62.9,80.1,40.2,71.9,53.1,155.2,35.7,235.8s-36.5,104.9-73.3,146.9c-2.7-.3-4.9-1-6.6.9.7,1.4,2.1,1.3,3.7,2.6-36.1,40-81.1,71.6-132,90.8ZM471.4,840c110.1,13.6,213.5-27.1,286-108.1,1.2.9,2.3,1.6,3.1,1.7s1.8-.2,1.9-1.5-1.7-2.7-1.5-4.3c64.6-75.1,90-177.2,70.4-274.2-15.6-77.3-57.7-144.4-118.5-192.4-127.1-100.4-309.2-90.9-425.5,22.4,0-1.5-2-.8-2.6-.5s.4,2.4,0,2.8c-82.6,81.9-115.6,199.4-87.5,312.6.1.4-2.4,1.2-2.4,1.6s-.2,1.1.3,1.4,1.4.2,2.9-.1c33.6,126.4,141.6,222.4,273.4,238.7Z"/>
    <path d="M466.3,788.1c5.1-12.7,25.2-8.4,26.8-21.9,2.2-18.1,17.8-14.7,13.8-30.6-6.4,6.6-12.1,13-20.7,15.6s-1,14.3-12.5,18.6-4.4,3.3-7.1,3.7l9.7-8.4c2.7-2.3.5-7.6.8-11-31.1-1.5-20.3,16.6-37.3,17.6,5.8-3.6,10.4-8.1,12.5-14.7-7.4.2-12.7,3.6-19.4,6,5.6-8.1,32.5-13.1,42.4-15,7.2-1.4,15.5-9.8,19.3-15.9-12.7-1.1-12.9,9.4-25.5,9.9-2,0-3.3,2.7-5.2,1.3,4.1-4,9.5-3.2,13.4-8.1-6-.9-12.8-.3-18.1,3-15.9,9.9-16.6-2.6-32.9,8.8,2.5-4.7,8-8.5,13.7-7.9,6.7.7,11.7-1.6,17.6-5.1l8.7-5.1c-2.4-2.4-5.2-1.5-8.3-2.6,3.9-1.8,7.9-.1,11.8,1.5s9-1.3,13.2-2.2c8.6-1.8,13.4-6.5,16.1-14.9,5.1-16.3,2.3-44.4,4-60.9s2.7-18.3,1-28.1,2.8-15.1.4-23.4c-4.6,4.8-11.9,5.8-15.6,10.1s-5.3,11.2-12.8,11.1c3-3.1,6.8-4.5,8.3-9l-9.5-.3c11.5-3.9,21.8-10.2,30.7-18.6,0-4.1,1.2-18.5-.4-19.9s-3.8,10.7-5.9,12.7c-3-1.1-.9-3.6-4.7-5.6.6,2-1.5,12.1-3.9,11.7s-1.1-1.7-2-2.5c-3.1,3.1-5.7,7.1-10.7,7.7,0-5.3,3.4-8.9,4.1-14.2-4.2-1.1-8.3,9.6-12.9,10.3-.6-2.6,1.1-4.4.7-7-4.8-.4-6.1,12.1-9.8,12.1-2.5-.2.8-3.7-.7-5.6s-9.9,12.1-17.2,12.7c-.9-2.9,1.5-3.9,2-6.6-2-1.3-3.2,1.3-5.7.3.3-2.7,9-7.8,7.4-11.1s-11.3,8.9-11.7,7.1c-.2-1.4-.4-2.4,0-2.6.7-.3-.3-2-1.2-1.3-5.2,4.2-8.9,9.6-15.3,11.7-8.8,2.9,8.5-12.1,6-11.8l-16,8.4c-1.4-1.8,2.8-4.7,2.8-6.8,0-3.5-10.3,6.4-14.7,6.8-1.9-1.8.7-3.7-.3-5.8-8.8,1.4-18.1,2-24.7-4.3l16.3-6.1c3.3-1.2,7.2.8,10.2-2.3-2.7-1.4-5.2-.3-8.1-1.1.3-1.5,1.7-2.3,2.2-3.8-1.6-1.2-4-1.6-3.6-4.3,7.2,0,13.9-.5,20.1-4.4l-6.5-3.4c1.8-3.1,4.8-1.5,7.9-2.7-2.3-2.8-5.7-2.8-6.4-6.3,5,.1,9.3,1.4,13.8-.4-.3-1-1.5-3.5-.6-4.2,5.1-1.5,10.4.3,15.3-1.8-1-1.7-3.1-1.5-3.7-3.4l4.3-.7c.8-.1.5-2.4,1.3-3,2.2-1.5,5-.2,7.8-1.2l-2.9-3.7c-2-2.5,14.2-.9,16.8-4.7-1.1-1.7-2.9-3.7-1.1-6.3-3.7-.3-10.5,8.4-11.9,4.9s2.3-2.9,1.7-4c-1.4-2.9-15.5,10.9-19.5,5.9s4.6-5.8,2.2-6.3-16.7,9.1-25.1,6.8c3.5-5.7,9.9-6.4,14.2-10.9-2.1-2.4-12.8,5.3-18.1,2.3l4.7-5.2c-6.4-1-12.8-1.8-17.2-7,6.7-2.9,19.1.4,24.7-5.1-1.3-1.3-3.2-2.1-3.5-4,7-2.5,17.7,3,22.4.7-1.1-2.6-4.3-2-5.2-5.4,5.4-1.5,10.5,1.5,15.3-2.4l-13.2-5.2c3.4-3.5,8.2-2.2,12.5-2.9s6.4-1.6,10-1.5c5.8.2,11.7,0,16.9-2.6-2.8-2.8-5.8-.3-8.7-2.5l10.3-5.5c.9-1,.6-3.3,2.1-3.7s2.4,1.6,4.5.3c-5.9-6.7-13,7.8-24.4,5.4,1.6-3.4,4.5-3,6.3-5.8-1.5-.7-3.2-.3-4.2-1.5,1.3-2.2,3.4-2.7,4.2-5.1-4.4-2-14.2,8.1-21.6,8.5-2.4-2.1,5.9-6,2.8-6.8s-8.8,6.9-15.8,6.2c.1-4.3,3.9-5.5,5.2-8.6-3.3-.7-6.3,1.2-9.3,0,0-5.8-7.4-1.3-12.6-9.4,3-2.6,7,0,10-1.2s6.3-3.2,10.7-2.8,3.9,0,3.9-1.5c-1.6-2.3-4.3-3-5.5-5.7,5.1-2.4,14,2.8,18.4.8-1.8-3-7.6-6.8-5.2-9.4s21,8.7,21.9,4-11.7-3.7-13.6-8.4l11.8.2c-.8-8.5,7.6-.5,15.6-2.7-.2-1.3-1.2-1.9-1.7-3.7,3.2,0,4.5-3.1,6.1-5,5.9.2,14-2.4,14.8-8.8-4.6,0-5.5,3.6-9,4.3-1.1-2.2.7-3.8.2-5.9-4.8,1.2-13.7,13.3-20,10.4-.4-2.1,8.4-8.9,6-9.6s-12.7,8.6-18.6,7l5.9-7.9c-3.9-.7-12.1,7.2-17,5.3.9-3.3,3.5-3.3,4.7-5.9-3-.7-13.5.6-13.2-2.9s.8-1.3,1.5-2.9c-3.1-1.4-6.4-1.7-8.6-4.4,4.6-4.1,10.8-2.6,16.8-2.8-1.1-2.1-3.3-3.4-3.4-5.8,5.1-.4,8.7,3.2,14.2,3.3,1-1.4-.6-3.2-.3-5,6-.5,11.8,0,17.1-2.7-2.9-3.3-6.6-3-9.7-5.7,3.7-4.3,9.3-3.3,14.3-3.4-3.8-8.6,4.3-1.2,10.4-2.3.5-1-.4-2.1.1-3.4,4.7-.8,9.3-3.4,10.9-8l-9,3.9c-1.1-1.8,1.2-2.6,1.4-4.4-5.6-1.9-11.2,9.2-10.8.5-2.8.1-5.9,4-8.2,1.6,0-1.1,2.8-3.6,1.4-4-5,.3-9.6,1.8-14.7,0l4.8-5.4c-4.5,0-8.9.3-12.4-3.2,3.2-3,7.7-2.5,12.3-2.8-1.4-1.8-4-2.7-3.6-5.3,5.1.2,8.9,2.5,14,1.2-1.1-1.9-3.4-2.5-2.3-4.6,3.7.4,7.1,2.5,11,.7-1.9-2.8-5.2-2.1-7.7-4.8,2.3-3.4,9.2-1.5,11-2.9s-.4-2.2,0-2.7c2.3-2.8,6.9,1.6,9.5.3s4.9-4.4,9.2-5c1.5-.8-1.6-5.2-3.3-4.7s-2.4,1.4-2.6.6l-.6-2.3c-2.2.9-3.8,3.2-6,4.6-2.2-1.6-4.4-1.1-6.7,0-1.1-2.8,1.7-3.8,3.2-6.1l-8.7-.3c.1-2.4,2-2.9,2.6-4.7-1.7-1-5.6-.8-6.3-3,1.2-5,12.2.2,10.2-5.9,3.3-.9,6.4.8,9.6-.7-1.1-2.1-3.5-3.1-3.5-5.4,4,0,8.5,3.2,11.7,1.2.8-3.3-4.5-3-5.6-4.3-2.1-2.3-3-5.3-6.3-8.2,2.4-1.1,15.3,2.5,15.2,2.5,3.5-.3-2.4-3.7-2.4-5.5s.8-1.9,1.8-2.9c-2.6-3.1-5.6-6.1-4.9-10.8,3.2-1.2,6.9,4.2,8.3,3.5s-2.3-4.6.6-6.1c.9,1.3,3.6,2.2,3.9,1.1-2.1-5.7-3.9-11-2.3-17,2.1.9,2.2,3.3,4,4.9,1.5-5.5.4-10.8,3.1-16.6,3.4,5.6,2.4,11.6,4.2,17.9,2.2-1.5,2.6-4.6,4.7-3.7l-2.4,15.3,5.5-6.5c1.7,3.2-.4,5.5-.2,9,2.3-.3,2.7-2.5,5.4-3.6,3.5,7.9-10.7,11.2-6.7,13.9s2.4-.7,2.8-.4c2.4,1.9-5,6.9-1.9,8.1,2.3.3,3.6-2.1,5.6-2.9,5.4,5.1,4.2-1.2,9.1,1.6s-2.5,3.2-3.1,4.5,1.4,1.6,1.3,2.2c-1,2-3.7,2-5.2,3.9,2,1.7,4.3.1,5.7,1.9-1.8,1.6-4,1-4.1,3.9,2.3-1.1,3,1.6,4.2,2.4,2.4.9,5-2,7.4-1.5-.5,7.4,6.7.1,11.2,2.4-2,5.2-6.6,6.3-11,8.2.7,1.5,3.1,3,2.2,4-3.9,2.5-8.3-1.4-12.1-.3s-4.2,4-8.3,2c1,7.3,15.2,2.6,12.8,5.5s-2.8,1.2-3.1,1.7c-2.2,3.7,10.7,1,13.7,1.5s2.6,3.9,5.3,3.8l-4.2,3.8c3.7,1.5,9.2-.2,11.4,2.1s0,2,.1,3c3,1.9,7.2,3.1,8.3,7.2-7.3,0-13.7-2.2-20.7-3.6-.5,1.9,1.7,2.5,1.8,4.7-4.9.2-9.1-2.4-13.9-1.4s-.5,3.2-.2,4.8c1.9-1.7,4.9-1.8,7.2.2-1.8.8-3.6,2.1-2.8,3.1,4.6.8,9-.7,13.6-.7.5,1.9-1,2.9-1.2,4.6l8.8.7c1.8.1,1.4,3.1,2.1,4.3l13.7,1.8c-1.9,4-6.4,4.3-10.2,5.8s4.7,6.4-18.8,1.8c1.8,8,10.3,6.6,16.7,6.2,0,2-1.5,2.8-1.8,4.5,4.1.7,7.7-.7,12.2-1.2l-1.5,6.1c5.1-.3,9.8-2,14.7-.2-.7,3.2-3.5,3-5.9,4.9,6.5,1.7,12.6,5.1,17.5,10.2-6.1,2.8-11.4-.2-17.5-1.5-.5,2.6,2.1,3.3,2.8,6.2-4.3,1.4-7.7-.9-11.8-.8l.3,4.5c-3.9.7-6.4-1.8-10.4-3.5-.9,1.8.9,3.3.2,5.3-5.6-.9-12.4-9.8-16.3-6.2s9.4,9.9,10,10.1c6.3,2.3,13.1-.4,19.9.4-1.6,4.6-5.8,3.4-8,7,4.7,1.3,8.8-.2,13.5.4l-.2,4.2,13.2-1.8c.8,3.5-10.7,8.2-6.9,9,9.1,1.9,17.9,1.1,28,1.1-3.2,8.7-15.7,9.8-16.4,11.5s6.5,3,4.9,4.5c-5.3,3.6-11.6,2-17.8,2.1l5.1,6.6c-7.5,1.5-18.4-7.5-20.5-6.8-3.2,1.1,5,6.2,2.9,8.2-7.5.4-13.6-12.4-12.7-3.3-4.2,0-6-3.8-10.4-4.6,1.5,6.3,6.8,8.9,12.2,10.8s6.8,6.8,10.9,6.8h18.6c-2.8,3.9-12.5,6.1-12.5,8.4s12.4-.7,15.1-.6v5.2c4.6-1.2,7.2-4.5,11.6-4.9l-1.6,7.7c6.3-1.1,11.9-2.4,18.8-1.8-2.6,5.6-7.9,7.9-12.6,10.9s13.6,8.6,14.6,10c-3.9,3.1-8.4,1.9-12.9,2.7.3,1.2,2,3.1,1.2,4.2-5.4,2.3-14-5.4-15.5-2.1l6.6,9.2c-5.5,3-22.4-14-25.2-9.8s6.2,5.6,5.8,9.1l-11.5-1.2c3.9,8.2,20.2,3.3,13.1,9.2s9.9,3.4,13.8,3,3.7,2.1,5.4,2.9,5.5-1.4,8.4.6c-5.1,9-17.1,6.2-16.5,11.2,3.1,4.6,14-.7,16.7,1.4.9.8-2,4.2-.2,4.6,6.4,1.7,12.6-.6,19.3-.1-.6,3.1-3.4,4.2-4.9,7,3.3.6,6.2-.3,9.6.7.1,2.7-2.6,3.2-4.2,6,5.6,1.7,10.7-.4,16.9.3-2.7,6.1-9.3,7.3-14.4,9.3,0,1.2.8,2.8.7,3.5-.7,4.2-14.9-1.5-18.5-2.2.7,4,4.4,4,6.2,8.2-10.3,3.9-20-9.9-23.1-6.6s5,6.9,5.9,10.6c-16.1-.2-16.8-13.8-27.8-10.3,1.5,3.8,3.9,2.9,6.9,6.5s-1.8,2.1-1.3,2.9c1.5,2.4,4.9,3.2,5.8,6.2-7.1,2.5-13.1-5.3-15.3-4.6s3.4,5.6,2.1,6.6c-3.9,0-6.2-3.4-9.3-5.1-5.7,6.9-7.5-8.5-15.4-8.4.2,1.8,1.7,4.4,0,4.9-2.2-.4-10.8-8.6-12-4.6s.1,1.6.6,2.1,2.1-1.1,2.9-.7c1.9,1,2.8,5,1.8,7.7-11.7-4-12.9-18.9-15.8-18.5s.4,6.5-.7,8.6c-4.4-.4-6.4-12.8-11-14,.4,5.7-1.5,11.6.3,16.9s8.5,10,13.7,11.8,11.7,3,15.6,8.4c-4.2.1-6.6-3-10.5-3.5-.4,2.9,2,4.7,3.2,8-3.8-.1-3.9-5.4-6.6-7.2-5-3.4-10.7-5-15.5-10.3-2.5,10.5,3.4,23.1,2,29.7-2.5,12,0,23.3.6,35.1s-.6,16.8.8,25.8l3,18.9c1.1,7.1,5.2,15.4,12.3,18.1l15.3,5.8c20.7,7.9,26.5-8.1,48.2,15.3-5.8-.6-16.9-12.3-23.9-8.1,3.4,4.5,7.9,7.7,7.6,13.2-10.4-13.2-9.2-12.9-24.6-12.3,2.3,11.6,11.8,6.1,16.5,15.3-3.9-1.3-5.4-4.6-8.8-3.5.2,2.3,2,3.5.5,5.7-.9-3.8-4.4-5.3-6.6-8.2-3.2-4.2-6-8.3-11.7-9.1-6.6-.9-12.6-4.7-19.8-4.3,3.3,4.8,8.6,6.4,13.3,8.4,16.7,6.9,4,25,21.8,27.2,5.9.7,12,3.1,14.7,8.8-13.5-8.7-14.4-2.5-25.9-9-1,3.1,1.6,5.1,0,8.2l-6.5-18.1c-2.3-6.3-5.4-10.9-12.2-12.7s-4.1-2.8-6.2-1.3c1.3,4.3,5.7,5.4,7.7,9.8-16-5.1-12.3-7.7-21.3-18.1-1,5.6-.2,11.4,2.5,16.1,5.7,9.9,20.9,10.8,22.8,18.1-3.1-1.1-4.7-3.7-7.9-3.6-3,15.3,16.9,11.2,18.7,24.8-3.5-4.4-7.4-7.5-12.7-9.2-14.4-4.8-5.7-15.2-16.7-19.3s-7.5-4.5-10.4-8.5c-4.3,6.7-1.9,13.2,2.2,18.6,9.5,12.6,7,8.6,5.3,25.4-4.4-4.9,1.2-12.3-4.4-17.7s-5.4-6.4-9.4-9.2c-1.3,16.4-11.5,11.9-12.4,27-3.7-12.9,8.5-13.6,8.2-27.1s.8-12.9,2.2-20.1c-4.5,2.6-9.5,5.4-10.9,10l-3.5,11.4c-1.9,6.3-12.7,2.2-18.7,22.1-2.4-4.8,1-9.2,2.7-13.8-5.5-.4-8.9,3.6-14.3,6.6Z"/>
  </g>
</svg>