<svg width="112" height="29" viewBox="0 0 112 29" fill="none" xmlns="http://www.w3.org/2000/svg">
<g clip-path="url(#clip0_42_1029)">
<path d="M25.5131 19.6795C25.5131 19.9293 25.4437 20.0574 25.2985 20.0574C24.6989 20.0574 23.973 20.0574 23.1146 19.9742C22.2561 19.8909 21.606 19.8973 21.0632 19.8973C20.5203 19.8973 19.8576 19.8973 19.0686 19.9742C18.2796 20.051 17.5348 20.0574 16.9351 20.0574C16.7773 20.0574 16.6953 19.9293 16.6953 19.6795C16.6953 19.4296 16.7647 19.3271 16.9099 19.3079C17.6558 19.2701 18.3853 19.0713 19.0496 18.725C19.2596 18.5424 19.4219 18.3101 19.5221 18.0486C19.6223 17.7871 19.6573 17.5045 19.624 17.226V17.0082L19.056 3.79898L12.5862 20.2752C12.556 20.3492 12.5024 20.4109 12.4338 20.4503C12.3651 20.4898 12.2855 20.5048 12.2074 20.493C12.0055 20.493 11.8855 20.4226 11.8477 20.2752L5.75027 4.48442L4.78453 17.0146C4.77644 17.1511 4.77644 17.288 4.78453 17.4246C4.76284 17.6809 4.81009 17.9385 4.92125 18.1697C5.0324 18.401 5.2033 18.5973 5.41573 18.7378C6.10151 19.0791 6.84928 19.2732 7.61231 19.3079C7.73855 19.3079 7.80167 19.4489 7.80167 19.6859C7.80167 19.9229 7.72592 20.0574 7.56181 20.0574C7.09472 20.0574 6.46352 20.0574 5.66821 19.9742C4.8729 19.8909 4.33638 19.8973 3.93241 19.8973C3.52845 19.8973 2.87831 19.8973 2.10825 19.9742C1.33819 20.051 0.795354 20.0574 0.391386 20.0574C0.265146 20.0574 0.202026 19.9293 0.202026 19.6795C0.202026 19.4296 0.284082 19.3271 0.441882 19.3079C1.26004 19.263 2.05989 19.0448 2.78994 18.6673C3.03156 18.4662 3.22439 18.2114 3.35353 17.9226C3.48268 17.6338 3.54468 17.3188 3.53476 17.0018L4.92971 4.18975C4.92971 4.02319 4.92971 3.88226 4.92971 3.75414C4.94761 3.50273 4.89844 3.25107 4.78737 3.02562C4.6763 2.80016 4.50743 2.60925 4.29851 2.47294C3.59792 2.12449 2.83644 1.91986 2.05775 1.87077C1.93151 1.87077 1.86839 1.74906 1.86839 1.49922C1.86748 1.40701 1.89629 1.31703 1.95045 1.24298C2.00094 1.1597 2.05775 1.12127 2.10825 1.12127C2.44278 1.12127 2.90987 1.12127 3.52213 1.20455C4.1344 1.28783 4.41844 1.28142 4.63936 1.28142C4.86028 1.28142 5.3968 1.24939 5.9775 1.19814C6.5582 1.14689 7.04423 1.11486 7.37876 1.11486L13.1353 16.2523L19.0875 1.10205C19.441 1.10205 19.9081 1.10205 20.4888 1.18533C21.0695 1.26861 21.4608 1.28142 21.7322 1.28142C22.0037 1.28142 22.5591 1.24939 23.083 1.19814C23.5526 1.14599 24.0245 1.1182 24.4969 1.11486C24.6547 1.11486 24.7367 1.24298 24.7367 1.49282C24.7367 1.74265 24.6673 1.86437 24.5221 1.86437C23.7756 1.90364 23.046 2.10459 22.3824 2.45372C22.1706 2.6348 22.0071 2.86694 21.9067 3.12885C21.8064 3.39075 21.7724 3.67404 21.808 3.95272V4.18334L22.4392 16.9954C22.4216 17.4608 22.5192 17.9233 22.7232 18.3406C22.9359 18.6307 23.2345 18.844 23.5753 18.9492C24.1374 19.1319 24.7172 19.2522 25.3048 19.3079C25.4437 19.3271 25.5131 19.4489 25.5131 19.6795Z" fill="white"/>
<path d="M34.0406 20.3582C33.5796 20.3675 33.1265 20.2358 32.7403 19.9803C32.3808 19.7427 32.1149 19.3844 31.9892 18.9681C31.4947 19.4707 30.9027 19.8634 30.2508 20.1215C29.5988 20.3795 28.9011 20.4972 28.202 20.4671C27.8396 20.4818 27.4779 20.4225 27.1386 20.2927C26.7992 20.1628 26.489 19.9651 26.2263 19.7112C25.9782 19.4662 25.7823 19.172 25.6509 18.8469C25.5195 18.5218 25.4554 18.1728 25.4626 17.8214C25.4626 15.9637 27.6381 14.4562 31.9892 13.2988L32.0712 11.172V11.1079C32.1027 10.5452 31.9323 9.98994 31.5915 9.54488C31.4387 9.35698 31.2454 9.20726 31.0265 9.10729C30.8076 9.00732 30.569 8.95978 30.3291 8.96834C29.8529 8.95468 29.3839 9.08876 28.9847 9.3527C28.8198 9.45611 28.6824 9.59892 28.5845 9.76866C28.4865 9.9384 28.4311 10.1299 28.4229 10.3264C28.4455 10.8219 28.2858 11.3083 27.9748 11.6909C27.8281 11.8538 27.6482 11.9824 27.4477 12.0676C27.2471 12.1528 27.0306 12.1925 26.8133 12.1842C26.5548 12.1941 26.3028 12.0997 26.1127 11.9215C26.0291 11.8287 25.9651 11.7193 25.925 11.6003C25.8848 11.4812 25.8692 11.3551 25.8792 11.2297C25.8792 10.525 26.5104 9.79472 27.7728 9.026C28.813 8.32533 30.0222 7.9266 31.2696 7.87292C32.135 7.83688 32.9792 8.15012 33.6177 8.74413C33.9205 9.04948 34.1567 9.41596 34.3111 9.81984C34.4655 10.2237 34.5346 10.656 34.514 11.0887V11.2553L34.312 17.4115V17.5076C34.312 18.462 34.6213 18.9425 35.2272 18.9425C35.6246 18.8902 35.9912 18.6974 36.2624 18.398H36.3571C36.4001 18.4039 36.4409 18.4204 36.4762 18.4461C36.5114 18.4718 36.5398 18.5059 36.5591 18.5453C36.6205 18.6358 36.6535 18.743 36.6537 18.8528C36.6537 19.1155 36.3823 19.4358 35.8395 19.8201C35.3101 20.1861 34.6809 20.3743 34.0406 20.3582ZM31.9892 14.2149C29.3844 14.8085 28.0821 15.8014 28.0821 17.1937C28.0821 18.4749 28.5681 19.1155 29.5527 19.1155C30.0323 19.1152 30.5046 18.9965 30.9288 18.7695C31.3303 18.5851 31.6592 18.2693 31.8629 17.8727L31.9892 14.2149Z" fill="white"/>
<path d="M43.0541 19.679C43.0541 19.9289 42.9783 20.057 42.8394 20.057C42.467 20.057 42 20.057 41.4256 19.9737C40.8512 19.8904 40.2452 19.8968 39.8097 19.8968C39.3742 19.8968 38.8313 19.8968 38.2064 19.9737C37.5816 20.0506 37.1713 20.057 36.8052 20.057C36.6663 20.057 36.5906 19.9289 36.5906 19.679C36.5906 19.4292 36.6663 19.3267 36.8052 19.3075C37.3447 19.3027 37.8653 19.1054 38.2759 18.7502C38.5556 18.2161 38.67 17.6088 38.6041 17.0077V11.9726C38.6564 11.4796 38.5619 10.982 38.3327 10.5441C37.9945 10.2567 37.5682 10.0981 37.1271 10.0956C36.9882 10.0956 36.9125 9.97393 36.9125 9.73691C36.9125 9.49989 36.9882 9.40379 37.1271 9.40379C37.916 9.20898 38.6868 8.94536 39.431 8.61586C39.8434 8.45861 40.2242 8.22633 40.5545 7.93041C40.5885 7.88185 40.6328 7.84167 40.6841 7.81284C40.7355 7.78401 40.7926 7.76727 40.8512 7.76386C41.0973 7.76386 41.2236 7.84073 41.2236 7.98166C41.0847 10.0188 41.009 11.6011 41.009 12.7285V17.0077C40.9473 17.6087 41.0615 18.2147 41.3372 18.7502C41.7609 19.104 42.2908 19.3006 42.8394 19.3075C42.9783 19.3267 43.0541 19.4484 43.0541 19.679ZM41.1731 3.20278C41.1735 3.38771 41.1375 3.57086 41.067 3.74141C40.9965 3.91195 40.8931 4.06643 40.7628 4.19571C40.6341 4.32917 40.4804 4.4352 40.3108 4.50758C40.1411 4.57997 39.959 4.61726 39.775 4.61726C39.591 4.61726 39.4088 4.57997 39.2392 4.50758C39.0695 4.4352 38.9159 4.32917 38.7871 4.19571C38.5262 3.92926 38.3797 3.56885 38.3797 3.19317C38.3797 2.81749 38.5262 2.45708 38.7871 2.19063C39.0523 1.92845 39.4079 1.78174 39.7781 1.78174C40.1483 1.78174 40.5039 1.92845 40.7691 2.19063C40.9012 2.32225 41.0052 2.48001 41.0747 2.65412C41.1442 2.82823 41.1777 3.01498 41.1731 3.20278Z" fill="white"/>
<path d="M57.4392 19.6793C57.4392 19.9292 57.3697 20.0573 57.2246 20.0573C56.7837 20.0533 56.3433 20.0255 55.9054 19.974C55.3373 19.9228 54.8323 19.8971 54.3968 19.8971C53.9613 19.8971 53.4374 19.8971 52.8567 19.974C52.4166 20.0252 51.9741 20.053 51.5311 20.0573C51.386 20.0573 51.3165 19.9292 51.3165 19.6793C51.3165 19.4295 51.386 19.327 51.5311 19.3078C51.7585 19.3099 51.9838 19.2638 52.1926 19.1722C52.4013 19.0806 52.5888 18.9457 52.743 18.7761C52.9869 18.2217 53.0827 17.6119 53.0208 17.008V12.4534C53.0835 11.6746 52.8831 10.8975 52.4527 10.2497C52.2181 10.0019 51.9322 9.81019 51.6156 9.68832C51.299 9.56645 50.9597 9.51751 50.6222 9.54503C50.1473 9.53449 49.6764 9.63533 49.2462 9.83971C48.7638 10.1113 48.3322 10.4669 47.9712 10.8903V17.0272C47.9132 17.6323 48.0134 18.2421 48.2615 18.7953C48.4158 18.9649 48.6033 19.0998 48.812 19.1914C49.0207 19.283 49.246 19.3292 49.4734 19.327C49.6186 19.327 49.688 19.4679 49.688 19.6986C49.688 19.9292 49.6186 20.0765 49.4734 20.0765C49.0262 20.0728 48.5796 20.045 48.1353 19.9932C47.5483 19.942 47.0433 19.9164 46.6015 19.9164C46.1596 19.9164 45.6736 19.9164 45.0992 19.9932C44.6528 20.0448 44.204 20.0726 43.7548 20.0765C43.6096 20.0765 43.5402 19.9484 43.5402 19.6986C43.5402 19.4487 43.6096 19.3462 43.7548 19.327C44.3012 19.3228 44.8286 19.1232 45.2444 18.7633C45.5277 18.2327 45.6444 17.627 45.5789 17.0272V11.9729C45.6313 11.4799 45.5367 10.9823 45.3075 10.5444C44.9545 10.244 44.5057 10.0846 44.0451 10.0959C43.9063 10.0959 43.8305 9.97423 43.8305 9.73721C43.8305 9.50019 43.9063 9.4041 44.0451 9.4041C44.8069 9.22002 45.5489 8.9604 46.2606 8.62897C46.6708 8.46504 47.049 8.22863 47.3778 7.93072C47.4118 7.88216 47.4561 7.84197 47.5075 7.81314C47.5588 7.78431 47.6159 7.76757 47.6745 7.76416C47.9207 7.76416 48.0469 7.84103 48.0469 7.98196L47.9712 9.69878C49.2588 8.48163 50.456 7.87306 51.5627 7.87306C52.085 7.84673 52.607 7.93046 53.0959 8.11899C53.5847 8.30753 54.0298 8.59676 54.4031 8.96849C54.7549 9.35149 55.0272 9.80233 55.204 10.2942C55.3807 10.7861 55.4582 11.3091 55.432 11.832V17.0401C55.3668 17.6411 55.4812 18.2482 55.7602 18.7825C56.1729 19.134 56.6922 19.3308 57.2309 19.3398C57.376 19.327 57.4392 19.4487 57.4392 19.6793Z" fill="white"/>
<path d="M68.1064 12.3188C68.1064 12.5751 67.9423 12.6968 67.6204 12.6968H60.2669C60.2103 13.2051 60.1829 13.7163 60.1849 14.2278C60.1086 15.4432 60.4797 16.644 61.2264 17.5974C61.5965 18.0003 62.0499 18.3149 62.5541 18.5187C63.0584 18.7225 63.6008 18.8104 64.1425 18.7761C64.806 18.7626 65.4561 18.5844 66.0361 18.2572C66.6487 17.9445 67.1821 17.493 67.5952 16.9375H67.6646C67.712 16.9426 67.7576 16.9585 67.798 16.984C67.8385 17.0096 67.8727 17.044 67.8981 17.0849C67.9736 17.1862 68.0136 17.3102 68.0118 17.4372C68.0118 17.6294 67.7277 18.0266 67.1533 18.6351C66.6136 19.2116 65.971 19.6789 65.2597 20.0124C64.6012 20.3305 63.8808 20.4946 63.1515 20.4929C62.3864 20.5059 61.6275 20.352 60.9262 20.0414C60.2249 19.7308 59.5975 19.2709 59.0866 18.6928C57.9851 17.4994 57.391 15.9137 57.4329 14.2791C57.3921 12.6189 57.969 11.0042 59.0487 9.75641C59.5546 9.15805 60.185 8.68105 60.8945 8.3598C61.604 8.03855 62.3748 7.88106 63.1515 7.89867C63.7958 7.88147 64.437 7.99501 65.0374 8.23261C65.6379 8.47022 66.1856 8.82711 66.6484 9.28237C67.0866 9.65729 67.4428 10.1211 67.6939 10.6441C67.945 11.167 68.0855 11.7375 68.1064 12.3188ZM65.6448 11.1209C65.6534 10.8043 65.596 10.4894 65.4763 10.1968C65.3567 9.90426 65.1775 9.64067 64.9504 9.4233C64.7127 9.19628 64.433 9.01937 64.1275 8.90281C63.8219 8.78625 63.4967 8.73236 63.1705 8.74426C62.8303 8.747 62.495 8.82594 62.1884 8.97543C61.8818 9.12493 61.6115 9.34129 61.3968 9.60908C60.8565 10.2696 60.503 11.0667 60.3742 11.9152L64.1046 11.8063C64.5104 11.8215 64.9158 11.7674 65.3039 11.6462C65.4073 11.6052 65.4956 11.5326 65.5566 11.4385C65.6177 11.3445 65.6485 11.2335 65.6448 11.1209Z" fill="white"/>
<path d="M72.3733 18.7505C72.3762 18.9597 72.3374 19.1675 72.2593 19.3612C72.1812 19.5549 72.0654 19.7306 71.9189 19.8779C71.7794 20.0319 71.6095 20.1543 71.4202 20.2371C71.231 20.3199 71.0266 20.3612 70.8206 20.3584C70.6118 20.3607 70.4048 20.3193 70.2125 20.2366C70.0202 20.1539 69.8469 20.0318 69.7034 19.8779C69.5554 19.7317 69.4379 19.5569 69.3576 19.3638C69.2773 19.1707 69.236 18.9632 69.236 18.7537C69.236 18.5441 69.2773 18.3366 69.3576 18.1435C69.4379 17.9505 69.5554 17.7756 69.7034 17.6294C69.8496 17.4805 70.0239 17.3629 70.2158 17.2837C70.4078 17.2045 70.6134 17.1652 70.8206 17.1682C71.025 17.1648 71.2279 17.204 71.4168 17.2833C71.6057 17.3627 71.7766 17.4804 71.9189 17.6294C72.0652 17.7755 72.1809 17.9501 72.259 18.1428C72.3371 18.3354 72.376 18.5421 72.3733 18.7505Z" fill="white"/>
<path d="M86.4175 9.89085C86.4175 10.3841 86.3039 10.6275 86.0704 10.6275L84.3661 10.5763C84.5603 11.0784 84.6609 11.6128 84.6628 12.1522C84.6757 12.7693 84.5559 13.3819 84.3117 13.9472C84.0675 14.5125 83.7048 15.0171 83.2489 15.4256C82.3012 16.2884 81.0624 16.7472 79.7899 16.7068H79.2534C78.6739 16.6825 78.0957 16.7806 77.5555 16.9951C77.1389 17.1873 76.9243 17.4051 76.9243 17.6357C76.9313 17.8026 76.984 17.9641 77.0766 18.1022C77.1691 18.2403 77.2978 18.3494 77.4482 18.4172C77.8995 18.6481 78.4013 18.7583 78.9063 18.7376L82.0118 18.7824C83.1254 18.7349 84.2268 19.0344 85.1678 19.6408C85.5275 19.8938 85.8185 20.2349 86.0138 20.6324C86.2091 21.03 86.3024 21.4711 86.285 21.9149C86.285 23.3883 85.496 24.6695 83.9243 25.7585C82.2715 26.8782 80.3185 27.4531 78.3319 27.4049C77.0621 27.4493 75.8113 27.0837 74.7593 26.3607C74.3251 26.0919 73.9649 25.716 73.7122 25.268C73.4594 24.82 73.3224 24.3144 73.3138 23.7983C73.331 23.4257 73.4214 23.0604 73.5797 22.7238C73.7379 22.3872 73.9609 22.086 74.2354 21.8381C74.8373 21.2302 75.5697 20.772 76.3752 20.4992C75.8403 20.2568 75.3738 19.8824 75.0181 19.4102C74.6968 19.0159 74.5127 18.525 74.4942 18.0137C74.4942 17.6806 74.8224 17.3346 75.4852 16.9567C76.1209 16.5928 76.8121 16.3394 77.5303 16.2072C76.8141 15.8685 76.1982 15.345 75.744 14.689C75.3226 14.063 75.1021 13.3202 75.1128 12.5622C75.1119 11.9438 75.2383 11.332 75.484 10.7661C75.7296 10.2002 76.0891 9.6926 76.5393 9.27588C76.9855 8.82355 77.5164 8.4664 78.1007 8.22547C78.6849 7.98453 79.3108 7.86468 79.9414 7.87296C80.6435 7.87307 81.3401 7.99885 81.9991 8.24451C82.6178 8.45573 83.1871 8.79369 83.6718 9.23744L86.0956 9.15416C86.3039 9.15416 86.4175 9.404 86.4175 9.89085ZM84.5807 22.9847C84.6022 22.7239 84.555 22.4619 84.4442 22.2256C84.3333 21.9893 84.1626 21.787 83.9495 21.6395C83.318 21.3127 82.6122 21.1624 81.9045 21.2039L78.8053 21.1398C78.2482 21.1513 77.6939 21.0579 77.1705 20.8643C76.0764 21.4708 75.5294 22.2694 75.5294 23.2602C75.5228 23.6897 75.6215 24.1142 75.8165 24.4954C76.0115 24.8767 76.2967 25.2029 76.6466 25.4446C77.4764 26.0287 78.4717 26.3212 79.4807 26.2774C80.7398 26.3095 81.9823 25.9809 83.0659 25.3293C83.5025 25.1125 83.8735 24.7804 84.1401 24.3678C84.4066 23.9553 84.5588 23.4776 84.5807 22.9847ZM82.1506 12.0945C82.2127 11.2069 82.0291 10.3194 81.6204 9.53212C81.4328 9.25819 81.1782 9.03854 80.8816 8.89477C80.585 8.751 80.2566 8.68807 79.9288 8.71215C78.4476 8.71215 77.707 9.99335 77.707 12.5558C77.6437 13.4268 77.8207 14.2986 78.2183 15.0733C78.4119 15.3431 78.6715 15.5571 78.9715 15.6942C79.2714 15.8312 79.6014 15.8866 79.9288 15.8548C81.4248 15.8613 82.1506 14.6185 82.1506 12.1266V12.0945Z" fill="white"/>
<path d="M98.9089 14.2532C98.9381 15.082 98.7985 15.9081 98.4987 16.6797C98.199 17.4513 97.7456 18.1518 97.1668 18.7374C95.9266 19.866 94.3195 20.4902 92.6538 20.4902C90.988 20.4902 89.3809 19.866 88.1407 18.7374C87.5596 18.1533 87.1042 17.4532 86.8032 16.6813C86.5023 15.9095 86.3623 15.0827 86.3923 14.2532C86.3681 13.4118 86.5117 12.5741 86.8143 11.7903C87.1169 11.0066 87.5724 10.2929 88.1533 9.6921C89.3715 8.52629 90.9826 7.87695 92.6569 7.87695C94.3313 7.87695 95.9423 8.52629 97.1605 9.6921C97.738 10.2948 98.1904 11.0091 98.4907 11.7926C98.7911 12.5761 98.9333 13.4128 98.9089 14.2532ZM96.1948 14.2532C96.2641 12.8541 95.9354 11.4642 95.248 10.2494C94.9808 9.79273 94.6011 9.41443 94.1463 9.15168C93.6915 8.88893 93.1771 8.75077 92.6538 8.75077C92.1304 8.75077 91.6161 8.88893 91.1612 9.15168C90.7064 9.41443 90.3267 9.79273 90.0595 10.2494C89.3706 11.4545 89.0396 12.836 89.1064 14.2276C89.0357 15.5975 89.3627 16.9585 90.0469 18.1416C90.3257 18.5861 90.7105 18.952 91.1656 19.2055C91.6207 19.459 92.1315 19.5919 92.6506 19.5919C93.1698 19.5919 93.6805 19.459 94.1356 19.2055C94.5907 18.952 94.9755 18.5861 95.2543 18.1416C95.9364 16.9576 96.2633 15.5973 96.1948 14.2276V14.2532Z" fill="white"/>
<path d="M111.381 8.68655C111.381 8.91716 111.306 9.04528 111.167 9.0581C110.615 9.06332 110.081 9.25744 109.652 9.60901C109.255 10.1468 108.932 10.7374 108.692 11.3643L104.842 20.275C104.811 20.3325 104.766 20.3804 104.71 20.4138C104.654 20.4472 104.591 20.4648 104.527 20.4648C104.462 20.4648 104.399 20.4472 104.343 20.4138C104.288 20.3804 104.242 20.3325 104.211 20.275L100.594 11.3643C100.387 10.7247 100.044 10.1388 99.5906 9.64745C99.1978 9.31587 98.7165 9.11068 98.2083 9.0581C98.0631 9.0581 97.9937 8.91716 97.9937 8.69295C97.9937 8.46874 98.0631 8.30859 98.2019 8.30859C98.5554 8.30859 98.9973 8.30859 99.5275 8.39187C100.058 8.47515 100.594 8.47515 101.011 8.47515C101.427 8.47515 101.958 8.47515 102.564 8.39187C103.169 8.30859 103.517 8.32781 103.908 8.32781C104.053 8.32781 104.123 8.45593 104.123 8.71217C104.123 8.96841 104.053 9.0645 103.908 9.07731C103.526 9.1094 103.152 9.20913 102.803 9.37199C102.709 9.42428 102.63 9.50232 102.577 9.59736C102.523 9.6924 102.497 9.8007 102.5 9.9101C102.554 10.4149 102.686 10.908 102.892 11.3707L105.063 16.7325L107.304 11.3643C107.526 10.9008 107.669 10.4027 107.727 9.89088C107.729 9.78015 107.701 9.67094 107.645 9.57576C107.589 9.48059 107.508 9.40331 107.411 9.35277C107.073 9.19334 106.71 9.09369 106.338 9.0581C106.193 9.0581 106.124 8.91716 106.124 8.69295C106.124 8.46874 106.193 8.30859 106.338 8.30859C106.76 8.31445 107.181 8.34225 107.601 8.39187C108.019 8.44628 108.441 8.47409 108.863 8.47515C109.046 8.47515 109.355 8.47515 109.778 8.40468C110.235 8.35547 110.695 8.32981 111.154 8.32781C111.306 8.32781 111.381 8.43671 111.381 8.68655Z" fill="white"/>
<path fill-rule="evenodd" clip-rule="evenodd" d="M71.7484 23.9137C71.7484 23.9137 70.8963 27.1168 74.7655 28.1545C74.7655 28.1545 51.2913 30.2237 27.312 27.8855C10.1371 26.2135 0 21.2681 0 21.2681C0 21.2681 15.5843 24.849 28.183 25.5024C30.6573 25.6242 58.55 26.1494 71.7484 23.9137Z" fill="white"/>
<path fill-rule="evenodd" clip-rule="evenodd" d="M61.5672 3.33137C55.0093 3.57035 48.4689 4.16912 41.9747 5.12505C42.4071 4.57446 42.6616 3.90188 42.7034 3.19909C42.7452 2.4963 42.5723 1.79754 42.2083 1.19817C51.8934 0.137639 61.6412 -0.213465 71.376 0.147581C78.7148 0.381849 86.0321 1.08147 93.2849 2.24235C105.278 4.3307 112 7.2006 112 7.2006C112 7.2006 95.1154 4.11931 85.9819 3.52355C77.8529 3.01738 69.703 2.95322 61.5672 3.33137Z" fill="white"/>
</g>
<defs>
<clipPath id="clip0_42_1029">
<rect width="112" height="29" fill="white"/>
</clipPath>
</defs>
</svg>
