<svg width="134" height="32" viewBox="0 0 134 32" fill="none" xmlns="http://www.w3.org/2000/svg">
<g clip-path="url(#clip0_42_1005)">
<mask id="mask0_42_1005" style="mask-type:luminance" maskUnits="userSpaceOnUse" x="105" y="0" width="29" height="32">
<path d="M134 0.0673828H105.929V32H134V0.0673828Z" fill="white"/>
</mask>
<g mask="url(#mask0_42_1005)">
<path d="M125.741 14.5855C126.401 14.4488 132.236 11.7563 132.757 11.4535C133.946 10.7621 134.353 9.23096 133.667 8.03402C132.98 6.83655 131.459 6.42621 130.271 7.11755C129.75 7.42038 124.517 11.1629 124.07 11.6696C123.557 12.2507 123.468 13.0815 123.848 13.7425C124.227 14.4041 124.985 14.742 125.741 14.5855Z" fill="white"/>
<path d="M132.757 20.547C132.236 20.2447 126.401 17.5518 125.741 17.4155C124.985 17.2585 124.227 17.5965 123.848 18.258C123.468 18.9195 123.557 19.7509 124.07 20.331C124.517 20.8376 129.75 24.5807 130.271 24.883C131.46 25.5748 132.98 25.164 133.667 23.967C134.353 22.7696 133.945 21.2384 132.757 20.547Z" fill="white"/>
<path d="M119.965 20.5156C119.206 20.5156 118.536 21.0084 118.293 21.7456C118.081 22.3895 117.479 28.824 117.479 29.4296C117.479 30.8118 118.591 31.9331 119.965 31.9331C121.338 31.9331 122.451 30.8123 122.451 29.4296C122.451 28.824 121.849 22.389 121.636 21.7456C121.393 21.0079 120.723 20.5156 119.965 20.5156Z" fill="white"/>
<path d="M114.187 17.4155C113.529 17.5517 107.692 20.2442 107.172 20.547C105.983 21.2389 105.576 22.77 106.262 23.967C106.949 25.1645 108.469 25.5748 109.658 24.8829C110.179 24.5801 115.412 20.8376 115.859 20.3309C116.372 19.7498 116.461 18.9195 116.081 18.258C115.702 17.597 114.943 17.2585 114.187 17.4155Z" fill="white"/>
<path d="M109.658 7.11755C108.469 6.42621 106.948 6.83655 106.262 8.03402C105.575 9.2315 105.983 10.7627 107.172 11.4535C107.693 11.7563 113.528 14.4488 114.187 14.5855C114.943 14.742 115.702 14.4046 116.081 13.7425C116.461 13.0815 116.372 12.2502 115.859 11.6696C115.412 11.1629 110.179 7.42038 109.658 7.11755Z" fill="white"/>
<path d="M119.965 0.0673828C118.592 0.0673828 117.479 1.18801 117.479 2.57096C117.479 3.17645 118.081 9.61152 118.293 10.2555C118.536 10.9931 119.206 11.4854 119.965 11.4854C120.723 11.4854 121.393 10.9926 121.636 10.2555C121.849 9.61152 122.451 3.17699 122.451 2.57096C122.451 1.18854 121.338 0.0673828 119.965 0.0673828Z" fill="white"/>
</g>
<mask id="mask1_42_1005" style="mask-type:luminance" maskUnits="userSpaceOnUse" x="0" y="6" width="97" height="20">
<path d="M96.396 6.98633H0V25.0815H96.396V6.98633Z" fill="white"/>
</mask>
<g mask="url(#mask1_42_1005)">
<path d="M18.9637 6.98633L16.6458 18.5699L14.0452 6.98633H9.52854L6.92786 18.5699L4.61138 6.98633H0L3.76029 24.6807H9.12664L11.7517 12.9322L14.3767 24.6807H19.6254L23.3613 6.98633H18.9637Z" fill="white"/>
<path d="M28.386 22.2275C27.3453 22.2275 26.7785 21.5904 26.7785 20.7181C26.7785 19.5856 27.6768 19.1375 28.8119 18.7362C29.4035 18.5143 29.9961 18.2838 30.3966 17.9347V19.8921C30.3966 21.3786 29.6159 22.2275 28.3871 22.2275M29.0015 10.2432C26.1398 10.2432 24.1303 11.2113 23.397 11.8941V15.6691C24.2479 14.9144 26.045 13.8058 28.4104 13.8058C29.8754 13.8058 30.4193 14.2071 30.4193 15.0331C30.4193 15.7404 29.663 16.024 27.5576 16.4722C24.366 17.1326 22.5215 18.2897 22.5215 21.0492C22.5215 23.5969 24.2007 25.0833 26.6361 25.0833C28.6757 25.0833 29.8945 24.1392 30.5618 22.8704V24.682H34.959V15.9996C34.959 12.0128 32.878 10.2432 28.9999 10.2432" fill="white"/>
<path d="M41.1696 6.98633H36.6056V24.6807H41.1696V6.98633Z" fill="white"/>
<path d="M59.4849 10.2905C57.2704 10.2905 55.8393 11.6179 55.0914 13.3864C54.6899 11.4917 53.3563 10.2905 51.4919 10.2905C49.3807 10.2905 48.0047 11.5189 47.3072 13.2443V10.6913H42.8147V24.682H47.3787V16.9208C47.3787 15.0102 48.0174 13.925 49.3882 13.925C50.4988 13.925 50.8781 14.6797 50.8781 15.8596V24.6836H55.442V16.9219C55.442 15.0118 56.0803 13.9261 57.451 13.9261C58.5622 13.9261 58.9409 14.6807 58.9409 15.8606V24.6852H63.5049V15.2209C63.5049 12.2719 62.1098 10.2905 59.4849 10.2905Z" fill="white"/>
<path d="M70.3617 22.2275C69.3215 22.2275 68.7542 21.5904 68.7542 20.7181C68.7542 19.5856 69.653 19.1375 70.7881 18.7362C71.3797 18.5143 71.9724 18.2838 72.3728 17.9347V19.8921C72.3728 21.3786 71.5921 22.2275 70.3617 22.2275ZM70.9761 10.2432C68.1144 10.2432 66.1049 11.2113 65.3714 11.8941V15.6691C66.2225 14.9144 68.0196 13.8058 70.385 13.8058C71.85 13.8058 72.394 14.2071 72.394 15.0331C72.394 15.7404 71.6376 16.024 69.5323 16.4722C66.3406 17.1326 64.4958 18.2897 64.4958 21.0492C64.4958 23.5969 66.1754 25.0833 68.6107 25.0833C70.6504 25.0833 71.8691 24.1392 72.5364 22.8704V24.682H76.9336V15.9996C76.9336 12.0128 74.8526 10.2432 70.9745 10.2432" fill="white"/>
<path d="M82.9647 14.6433V10.6911H78.4955V24.6818H83.0595V18.736C83.0595 15.9993 84.7618 15.2675 86.3936 15.2675C86.9376 15.2675 87.4571 15.3378 87.6939 15.4096V10.5963C85.1262 10.4734 83.5663 12.1089 82.9647 14.6433Z" fill="white"/>
<path d="M96.3961 14.23V10.6913H93.4883V7.97754H88.9243V20.0092C88.9243 23.3834 90.8385 24.9641 93.8898 24.9641C95.3092 24.9641 96.0656 24.6805 96.3961 24.4686V20.9528C96.136 21.1423 95.7096 21.2839 95.1657 21.2839C94.1498 21.3068 93.4867 20.8586 93.4867 19.3738V14.23H96.3945H96.3961Z" fill="white"/>
</g>
</g>
<defs>
<clipPath id="clip0_42_1005">
<rect width="134" height="32" fill="white"/>
</clipPath>
</defs>
</svg>
